# xmcd CD database file
#
# Track frame offsets:
#	150
#	22850
#	39980
#
# Disc length: 850 seconds
#
# Revision: 0
# Processed by: cddbd v1.5PL3 Copyright (c) Steve Scherf et al.
# Submitted via: CDex 1.50
#
DISCID=14035003
DTITLE=PEALOUT - ソウルライダー
DYEAR=1900
DGENRE=Rock
TTITLE0=ソウルライダー
TTITLE1=EVERYTHING
TTITLE2=BEAT FOR YOUR RIGHT (live from 激ロックシンポジウム)
EXTD=
EXTT0=
EXTT1=
EXTT2=
PLAYORDER=
